<?xml version="1.0" encoding="utf-8"?>
<!-- Generator: Adobe Illustrator 15.0.0, SVG Export Plug-In  -->
<!DOCTYPE svg PUBLIC "-//W3C//DTD SVG 1.1//EN" "http://www.w3.org/Graphics/SVG/1.1/DTD/svg11.dtd" [
	<!ENTITY ns_flows "http://ns.adobe.com/Flows/1.0/">
]>
<svg version="1.1"
	 xmlns="http://www.w3.org/2000/svg" xmlns:xlink="http://www.w3.org/1999/xlink" xmlns:a="http://ns.adobe.com/AdobeSVGViewerExtensions/3.0/"
	 x="0px" y="0px" width="38px" height="40px" viewBox="-0.53 -0.998 38 40"
	 overflow="visible" enable-background="new -0.53 -0.998 38 40" xml:space="preserve">
<defs>
</defs>
<path fill="#777777" d="M16.896,0.575c-1.287,0-1.088,0.581-1.781,0.681c-0.692,0.1,0.141-0.281-1.938,0.118
	c-2.078,0.401-2.812,3.101-2.911,4.102c-0.099,0.999-0.124,3.811-0.058,5.31c0.198,0.9-0.495,0.9-0.495,0.9
	c-1.245-0.082-0.686,3.84-0.686,3.84c0.179,0.966-0.064,1.447,1.779,2.196c0.878,2.528,3.172,3.866,3.172,3.866
	s0.011,1.561,0.046,2.714c-0.188-0.094,0.641,2.952-5.086,3.807c-5.727,0.853-6.823,2.729-7.903,3.771
	C-0.042,32.924,0,37.983,0,37.983l36.958,0.021c0,0-0.275-5.08-1.354-6.124c-1.079-1.043-2.256-2.919-7.982-3.771
	c-5.567-0.814-4.651-3.817-4.69-3.998c0.01-0.455,0.07-2.384,0.07-2.384s1.943-1.552,2.822-4.079
	c1.381-0.882,1.908-1.004,2.137-2.021c0,0,0.406-3.961-0.898-3.941c0,0-0.619,0.202-0.421-0.699s0.132-3.711,0.032-4.711
	c-0.098-1,0.051-3.86-2.027-4.258c-1.418-0.267-1.604-0.003-2.295-0.103C21.658,1.814,20.833,0,19.547,0L16.896,0.575z"/>
</svg>
