<?xml version="1.0" encoding="utf-8"?>
<!-- Generator: Adobe Illustrator 15.0.0, SVG Export Plug-In  -->
<!DOCTYPE svg PUBLIC "-//W3C//DTD SVG 1.1//EN" "http://www.w3.org/Graphics/SVG/1.1/DTD/svg11.dtd" [
	<!ENTITY ns_flows "http://ns.adobe.com/Flows/1.0/">
]>
<svg version="1.1"
	 xmlns="http://www.w3.org/2000/svg" xmlns:xlink="http://www.w3.org/1999/xlink" xmlns:a="http://ns.adobe.com/AdobeSVGViewerExtensions/3.0/"
	 x="0px" y="0px" width="48px" height="45px" viewBox="-0.336 -0.564 48 45"
	 overflow="visible" enable-background="new -0.336 -0.564 48 45" xml:space="preserve">
<defs>
</defs>
<g>
	<g>
		<path fill-rule="evenodd" clip-rule="evenodd" fill="#777777" d="M19.244,12.249c1.096,0,1.984-0.89,1.984-1.986
			c0-1.099-0.889-1.989-1.984-1.989c-1.099,0-1.988,0.891-1.988,1.989C17.256,11.359,18.146,12.249,19.244,12.249z M24.971,12.249
			c1.101,0,1.99-0.89,1.99-1.986c0-1.099-0.89-1.989-1.99-1.989c-1.098,0-1.982,0.891-1.982,1.989
			C22.988,11.359,23.873,12.249,24.971,12.249z M30.673,12.249c1.095,0,1.984-0.89,1.984-1.986c0-1.099-0.89-1.989-1.984-1.989
			c-1.104,0-1.988,0.891-1.988,1.989C28.685,11.359,29.569,12.249,30.673,12.249z M36.404,12.249c1.095,0,1.99-0.89,1.99-1.986
			c0-1.099-0.896-1.989-1.99-1.989c-1.099,0-1.988,0.891-1.988,1.989C34.416,11.359,35.306,12.249,36.404,12.249z M31.585,15.959
			c0,1.099,0.89,1.986,1.988,1.986c1.095,0,1.984-0.888,1.984-1.986c0-1.097-0.89-1.986-1.984-1.986
			C32.475,13.973,31.585,14.863,31.585,15.959z M25.854,15.959c0,1.099,0.889,1.986,1.988,1.986c1.095,0,1.988-0.888,1.988-1.986
			c0-1.097-0.894-1.986-1.988-1.986C26.742,13.973,25.854,14.863,25.854,15.959z M20.088,15.959c0,1.099,0.889,1.986,1.988,1.986
			c1.095,0,1.987-0.888,1.987-1.986c0-1.097-0.893-1.986-1.987-1.986C20.977,13.973,20.088,14.863,20.088,15.959z M24.977,19.669
			c-1.099,0-1.988,0.89-1.988,1.989c0,1.097,0.89,1.987,1.988,1.987c1.095,0,1.987-0.891,1.987-1.987
			C26.964,20.56,26.071,19.669,24.977,19.669z M30.673,19.669c-1.104,0-1.988,0.89-1.988,1.989c0,1.097,0.885,1.987,1.988,1.987
			c1.095,0,1.984-0.891,1.984-1.987C32.657,20.56,31.768,19.669,30.673,19.669z M20.321,33.873c-2.736,0-4.959,2.219-4.959,4.954
			c0,2.737,2.223,4.957,4.959,4.957c2.734,0,4.955-2.219,4.955-4.957C25.276,36.092,23.056,33.873,20.321,33.873z M35.64,33.873
			c-2.734,0-4.953,2.219-4.953,4.954c0,2.737,2.219,4.957,4.953,4.957c2.736,0,4.96-2.219,4.96-4.957
			C40.6,36.092,38.376,33.873,35.64,33.873z M44.94,9.125l-0.626-0.226c-1.38-0.499-2.9,0.215-3.395,1.591l-5.505,15.142h-14.82
			L13.861,1.974c-0.331-1.232-1.475-2.026-2.7-1.962C11.122,0.01,11.086,0,11.046,0H2.648C1.186,0,0,1.188,0,2.651v0.663
			c0,1.464,1.186,2.653,2.648,2.653H8.8l6.703,23.56c0.058,0.216,0.148,0.413,0.252,0.6c0.436,0.869,1.324,1.472,2.361,1.472H37.12
			c0.329,0,0.64-0.067,0.931-0.177c0.984-0.097,1.875-0.736,2.234-1.729L46.53,12.52C47.024,11.142,46.313,9.622,44.94,9.125z"/>
	</g>
</g>
</svg>
