<?xml version="1.0" encoding="utf-8"?>
<!-- Generator: Adobe Illustrator 15.0.0, SVG Export Plug-In  -->
<!DOCTYPE svg PUBLIC "-//W3C//DTD SVG 1.1//EN" "http://www.w3.org/Graphics/SVG/1.1/DTD/svg11.dtd" [
	<!ENTITY ns_flows "http://ns.adobe.com/Flows/1.0/">
]>
<svg version="1.1"
	 xmlns="http://www.w3.org/2000/svg" xmlns:xlink="http://www.w3.org/1999/xlink" xmlns:a="http://ns.adobe.com/AdobeSVGViewerExtensions/3.0/"
	 x="0px" y="0px" width="30px" height="45px" viewBox="-0.621 -0.951 30 45"
	 overflow="visible" enable-background="new -0.621 -0.951 30 45" xml:space="preserve">
<defs>
</defs>
<path fill="#777777" d="M1.111,14.533c0.74,0.76,1.649,1.14,2.728,1.14c1.828,0,3.068-1.087,3.723-3.262
	c0.693-2.078,1.539-3.651,2.54-4.719c1.001-1.068,2.56-1.602,4.676-1.602c1.809,0,3.286,0.529,4.431,1.587
	c1.145,1.059,1.718,2.357,1.718,3.896c0,0.789-0.188,1.52-0.563,2.193c-0.375,0.674-0.837,1.285-1.385,1.833
	c-0.549,0.548-1.438,1.361-2.67,2.439c-1.405,1.231-2.521,2.294-3.349,3.189c-0.827,0.895-1.491,1.934-1.991,3.117
	c-0.5,1.184-0.75,2.584-0.75,4.2c0,1.289,0.341,2.261,1.024,2.915c0.683,0.654,1.524,0.981,2.525,0.981
	c1.924,0,3.069-1.001,3.435-3.002c0.212-0.942,0.37-1.602,0.477-1.978c0.105-0.375,0.255-0.75,0.447-1.125
	c0.191-0.376,0.485-0.789,0.88-1.241s0.919-0.977,1.573-1.573c2.367-2.117,4.007-3.622,4.921-4.517
	c0.914-0.895,1.703-1.958,2.367-3.189c0.664-1.231,0.995-2.665,0.995-4.3c0-2.078-0.582-4.002-1.746-5.773
	c-1.164-1.77-2.813-3.17-4.949-4.199C20.03,0.515,17.567,0,14.777,0c-3.001,0-5.628,0.616-7.879,1.848
	C4.646,3.079,2.934,4.633,1.761,6.509C0.587,8.385,0,10.237,0,12.065C0,12.95,0.37,13.773,1.111,14.533z M17.087,42.544
	c0.865-0.77,1.299-1.828,1.299-3.175c0-1.212-0.414-2.231-1.241-3.06c-0.827-0.827-1.848-1.241-3.06-1.241
	c-1.231,0-2.271,0.414-3.117,1.241c-0.847,0.828-1.27,1.848-1.27,3.06c0,1.366,0.438,2.43,1.312,3.189
	c0.876,0.76,1.9,1.14,3.074,1.14C15.22,43.698,16.221,43.313,17.087,42.544z"/>
</svg>
