<svg version="1.1"
	 xmlns="http://www.w3.org/2000/svg" xmlns:xlink="http://www.w3.org/1999/xlink" xmlns:a="http://ns.adobe.com/AdobeSVGViewerExtensions/3.0/"
	 x="0px" y="0px" width="100%" height="100%" viewBox="0 0 322 73" overflow="visible" enable-background="new 0 0 322 73"
	 xml:space="preserve">
<defs>
</defs>
<path d="M263.32,71.368V34.764h5.233v36.604 M270.588,34.761h2.085v36.644h-2.085V34.761z M289.294,34.783h2.091v36.585h-2.091
	V34.783z M274.705,34.761h2.089v36.607h-2.089V34.761z M281.96,34.756h5.232v36.612h-5.232V34.756z"/>
<path fill="#BD1D1D" d="M293.451,34.774h5.235v36.594h-5.235V34.774z M300.71,34.764h5.232v36.604h-5.232V34.764z M307.972,34.774
	h2.089v36.594h-2.089V34.774z M315.228,34.759h2.097v36.609h-2.097V34.759z"/>
<rect x="319.589" y="34.761" fill="#BD1D1D" width="2.101" height="36.594"/>
<rect x="258.702" y="34.738" width="2.096" height="36.648"/>
<path d="M1.903,35.344h8.571c2.317,0,4.1,0.199,5.346,0.599c1.247,0.4,2.183,0.977,2.812,1.736c0.624,0.759,1.05,1.67,1.272,2.745
	c0.223,1.076,0.331,2.739,0.331,4.988v3.14c0,2.296-0.214,3.972-0.646,5.021c-0.433,1.058-1.223,1.861-2.375,2.428
	c-1.152,0.561-2.658,0.843-4.518,0.843h-2.283v14.498H1.903V35.344z M10.414,41.5v9.158c0.243,0.021,0.452,0.031,0.627,0.031
	c0.78,0,1.322-0.22,1.624-0.639c0.306-0.424,0.457-1.303,0.457-2.639v-2.953c0-1.225-0.175-2.031-0.526-2.403
	C12.246,41.688,11.518,41.5,10.414,41.5z"/>
<path d="M22.684,35.344h6.022c4.018,0,6.735,0.176,8.155,0.508c1.424,0.343,2.582,1.215,3.479,2.614
	c0.897,1.401,1.344,3.636,1.344,6.702c0,2.801-0.316,4.688-0.949,5.649c-0.633,0.965-1.88,1.544-3.739,1.735
	c1.683,0.461,2.817,1.075,3.394,1.846c0.582,0.774,0.941,1.477,1.082,2.118c0.143,0.648,0.213,2.428,0.213,5.331v9.494h-7.902V59.38
	c0-1.928-0.139-3.118-0.414-3.58c-0.277-0.466-1.002-0.693-2.175-0.693v16.235h-8.509V35.344z M31.192,41.5v8.007
	c0.958,0,1.627-0.148,2.012-0.437c0.384-0.287,0.577-1.226,0.577-2.81v-1.981c0-1.139-0.187-1.89-0.556-2.244
	C32.853,41.681,32.177,41.5,31.192,41.5z"/>
<path d="M53.489,35.344v35.998h-8.511V35.344H53.489z"/>
<path d="M76.775,51.021h-8.512v-6.258c0-1.822-0.089-2.955-0.271-3.405c-0.184-0.455-0.584-0.676-1.205-0.676
	c-0.699,0-1.144,0.268-1.332,0.818c-0.188,0.553-0.284,1.737-0.284,3.56v16.719c0,1.752,0.096,2.891,0.284,3.425
	c0.188,0.536,0.614,0.801,1.271,0.801c0.634,0,1.048-0.265,1.245-0.805c0.195-0.53,0.291-1.788,0.291-3.758v-4.533h8.512v1.407
	c0,3.723-0.24,6.369-0.718,7.925c-0.479,1.558-1.534,2.924-3.175,4.1c-1.635,1.172-3.654,1.758-6.053,1.758
	c-2.492,0-4.547-0.501-6.166-1.488c-1.617-0.997-2.688-2.367-3.215-4.126c-0.522-1.758-0.787-4.397-0.787-7.928V48.037
	c0-2.596,0.081-4.536,0.243-5.837c0.161-1.292,0.643-2.542,1.446-3.742c0.8-1.202,1.911-2.149,3.336-2.837
	c1.421-0.687,3.054-1.036,4.9-1.036c2.507,0,4.574,0.537,6.206,1.6c1.629,1.065,2.701,2.396,3.215,3.991
	c0.513,1.586,0.767,4.063,0.767,7.421V51.021z"/>
<path d="M79.827,35.344h14.189v7.202h-5.678v6.826h5.316v6.847h-5.316v7.917h6.245v7.206H79.827V35.344z"/>
<path fill="#BD1D1D" d="M123.295,35.344v35.998h-7.44l-0.011-24.301l-2.961,24.301h-5.275l-3.121-23.745l-0.01,23.745h-7.441V35.344
	h11.012c0.326,2.162,0.664,4.712,1.009,7.65l1.21,9.159l1.955-16.81H123.295z"/>
<path fill="#BD1D1D" d="M135.22,35.344v35.998h-8.512V35.344H135.22z"/>
<path fill="#BD1D1D" d="M157.638,35.344v35.998h-7.459l-4.428-16.364v16.364h-7.115V35.344h7.115l4.771,16.21v-16.21H157.638z"/>
<path fill="#BD1D1D" d="M169.565,35.344v35.998h-8.51V35.344H169.565z"/>
<path fill="#BD1D1D" d="M191.01,46.24h-7.902v-2.67c0-1.247-0.102-2.038-0.304-2.38c-0.203-0.339-0.539-0.509-1.01-0.509
	c-0.514,0-0.899,0.228-1.161,0.683c-0.264,0.464-0.396,1.159-0.396,2.098c0,1.2,0.149,2.104,0.444,2.715
	c0.281,0.605,1.083,1.338,2.403,2.2c3.79,2.471,6.176,4.501,7.159,6.087c0.981,1.589,1.476,4.147,1.476,7.673
	c0,2.564-0.274,4.453-0.818,5.667c-0.547,1.217-1.602,2.239-3.164,3.059c-1.562,0.823-3.384,1.235-5.458,1.235
	c-2.278,0-4.221-0.474-5.831-1.425c-1.614-0.947-2.668-2.159-3.164-3.621c-0.499-1.471-0.747-3.555-0.747-6.251v-2.357h7.901v4.381
	c0,1.351,0.111,2.216,0.336,2.601c0.221,0.388,0.615,0.579,1.183,0.579c0.563,0,0.986-0.247,1.263-0.733
	c0.275-0.489,0.412-1.217,0.412-2.176c0-2.119-0.261-3.506-0.787-4.162c-0.54-0.648-1.866-1.742-3.981-3.27
	c-2.116-1.539-3.519-2.658-4.205-3.357c-0.688-0.693-1.256-1.659-1.708-2.887c-0.449-1.232-0.677-2.804-0.677-4.717
	c0-2.757,0.319-4.771,0.962-6.047c0.64-1.275,1.672-2.271,3.1-2.991c1.43-0.717,3.154-1.079,5.177-1.079
	c2.208,0,4.094,0.394,5.647,1.183c1.558,0.783,2.589,1.771,3.094,2.968c0.507,1.19,0.758,3.216,0.758,6.082V46.24z"/>
<path fill="#BD1D1D" d="M211.527,35.344v7.202h-5.056v28.796h-8.509V42.546h-5.032v-7.202H211.527z"/>
<path fill="#BD1D1D" d="M213.469,35.344h14.188v7.202h-5.681v6.826h5.316v6.847h-5.316v7.917h6.247v7.206h-14.755V35.344z"/>
<path fill="#BD1D1D" d="M230.67,35.344h6.021c4.02,0,6.739,0.176,8.158,0.508c1.425,0.343,2.58,1.215,3.477,2.614
	c0.897,1.401,1.345,3.636,1.345,6.702c0,2.801-0.314,4.688-0.95,5.649c-0.634,0.965-1.88,1.544-3.738,1.735
	c1.682,0.461,2.816,1.075,3.395,1.846c0.58,0.774,0.942,1.477,1.082,2.118c0.141,0.648,0.212,2.428,0.212,5.331v9.494h-7.903V59.38
	c0-1.928-0.14-3.118-0.413-3.58c-0.276-0.466-1.003-0.693-2.173-0.693v16.235h-8.512V35.344z M239.182,41.5v8.007
	c0.955,0,1.626-0.148,2.01-0.437c0.383-0.287,0.576-1.226,0.576-2.81v-1.981c0-1.139-0.185-1.89-0.557-2.244
	C240.842,41.681,240.164,41.5,239.182,41.5z"/>
<rect x="30.479" y="1.48" fill="none" width="22.612" height="22.612"/>
<path d="M119.417,19.065c-0.234,0.483-0.753,1.199-1.801,1.199c-0.67,0-1.937-0.452-1.937-2.158v-7.806h6.331V6.007h-6.331V1.485
	h-4.298v4.521h-3.05v4.294h3.05v7.806c0,4.039,3.172,6.454,6.234,6.454c3.135,0,5.213-2.133,5.983-4.374L119.417,19.065z"/>
<polygon points="88.703,24.093 79.096,14.484 87.574,6.007 81.499,6.007 74.954,12.553 74.954,0 70.655,0 70.655,24.093 
	74.954,24.093 74.954,16.417 82.629,24.093 "/>
<path d="M61.589,6.007V6.8c-1.237-0.788-2.662-1.246-4.184-1.246c-4.675,0-8.478,4.262-8.478,9.496c0,5.238,3.803,9.496,8.478,9.496
	c1.521,0,2.946-0.457,4.184-1.246v0.793h4.297V6.007H61.589z M57.405,20.25c-2.305,0-4.181-2.333-4.181-5.2
	c0-2.866,1.876-5.198,4.181-5.198c2.308,0,4.184,2.332,4.184,5.198C61.589,17.917,59.713,20.25,57.405,20.25z"/>
<path d="M100.854,6.007v10.625c0,1.996-1.621,3.618-3.616,3.618c-1.994,0-3.618-1.622-3.618-3.618V6.007h-4.298v10.625
	c0,4.364,3.551,7.914,7.916,7.914c1.304,0,2.53-0.321,3.616-0.883v0.43h4.297V6.007H100.854z"/>
<path d="M152.907,5.553c-1.304,0-2.531,0.322-3.617,0.883V6.007h-4.296v18.086h4.296V13.467c0-1.994,1.622-3.618,3.617-3.618
	s3.617,1.624,3.617,3.618v10.628h4.298V13.467C160.822,9.104,157.272,5.553,152.907,5.553z"/>
<path d="M34.776,24.093V17.08h3.033l5.263,7.013h5.372l-6.352-8.463c1.984-1.416,3.283-3.731,3.283-6.349
	c0-4.303-3.5-7.801-7.8-7.801h-7.097v22.612H34.776z M34.776,5.775h2.8c1.932,0,3.503,1.574,3.503,3.506
	c0,1.933-1.571,3.505-3.503,3.505h-2.8V5.775z"/>
<path d="M141.63,15.049c0-5.243-3.805-9.51-8.48-9.51c-4.754,0-8.479,4.178-8.479,9.51c0,5.605,4.782,9.512,9.076,9.512
	c2.167,0,5.132-0.74,7.465-4.053l-3.741-2.159c-3.174,3.875-7.595,1.245-8.036-2.036l12.112,0.003
	C141.596,15.896,141.63,15.473,141.63,15.049z M136.771,12.472h-7.246C130.33,8.952,135.974,8.218,136.771,12.472z"/>
<path fill="#BD1D1D" d="M25.545,12.788c0,6.812-5.522,12.332-12.335,12.332c-6.814,0-12.332-5.521-12.332-12.332
	S6.396,0.454,13.21,0.454C20.022,0.454,25.545,5.977,25.545,12.788"/>
<path fill="#FFFFFF" d="M11.58,19.417v-4.111h1.78l3.085,4.111h3.151l-3.725-4.962c1.161-0.832,1.924-2.188,1.924-3.722
	c0-2.522-2.05-4.574-4.573-4.574H9.062v13.258H11.58z M11.58,8.679h1.643c1.132,0,2.056,0.921,2.056,2.055
	c0,1.132-0.924,2.053-2.056,2.053H11.58V8.679z"/>
<path d="M183.449,6.005h2.207V22.8c0,5.043-2.166,7.563-7.111,7.563c-4.251,0-6.418-1.84-6.458-4.429h2.452
	c0,1.736,1.921,2.726,4.087,2.726c2.984,0,4.578-1.704,4.578-4.94v-2.861h-0.082c-0.776,2.214-2.779,3.236-5.068,3.236
	c-3.393,0-6.702-1.806-6.702-9.062c0-6.269,2.166-9.436,6.948-9.436c2.411,0,4.291,1.157,5.067,3.201h0.082V6.005z M178.586,22.392
	c2.942,0,4.618-1.772,4.618-7.564c0-5.723-1.676-7.527-4.618-7.527c-2.943,0-4.619,1.805-4.619,7.527
	C173.967,20.619,175.643,22.392,178.586,22.392z"/>
<path d="M189.663,6.005h2.453v2.827h0.082c0.939-2.043,2.902-3.235,5.477-3.235c0.286,0,0.571,0.033,0.858,0.102v2.044
	c-0.409-0.068-0.817-0.104-1.186-0.104c-2.738,0-5.231,1.636-5.231,5.146v11.311h-2.453V6.005z"/>
<path d="M207.281,5.597c4.782,0,7.48,3.133,7.48,9.436c0,6.371-2.698,9.471-7.48,9.471s-7.479-3.1-7.479-9.471
	C199.802,8.729,202.499,5.597,207.281,5.597z M207.281,22.8c2.779,0,4.864-1.941,4.864-7.768c0-5.758-2.085-7.732-4.864-7.732
	s-4.863,1.975-4.863,7.732C202.418,20.858,204.502,22.8,207.281,22.8z"/>
<path d="M217.788,6.005h2.453v12.741c0,2.964,1.144,4.054,3.76,4.054c2.779,0,4.742-1.806,4.742-4.633V6.005h2.451v18.09h-2.207
	v-2.521h-0.082c-1.267,2.044-3.311,2.93-5.558,2.93c-3.312,0-5.56-1.431-5.56-4.837V6.005z"/>
<path d="M235.12,6.005h2.207v2.589h0.082c0.776-1.67,2.575-2.997,5.354-2.997c4.864,0,6.907,3.167,6.907,9.47
	c0,6.269-2.166,9.437-6.948,9.437c-2.738,0-4.537-1.227-5.068-3.133h-0.082v8.72h-2.452V6.005z M242.396,7.3
	c-1.432,0-2.617,0.612-3.434,1.6c-1.104,1.261-1.391,3.033-1.391,6.167c0,6.678,2.248,7.733,4.742,7.733
	c2.452,0,4.74-1.056,4.74-7.733C247.055,8.491,244.808,7.3,242.396,7.3z"/>
<rect id="_x3C_Tranche_x3E__1_" fill="none" width="322" height="73"/>
</svg>
