<?xml version="1.0" encoding="utf-8"?>
<!-- Generator: Adobe Illustrator 15.0.0, SVG Export Plug-In  -->
<!DOCTYPE svg PUBLIC "-//W3C//DTD SVG 1.1//EN" "http://www.w3.org/Graphics/SVG/1.1/DTD/svg11.dtd" [
	<!ENTITY ns_flows "http://ns.adobe.com/Flows/1.0/">
]>
<svg version="1.1"
	 xmlns="http://www.w3.org/2000/svg" xmlns:xlink="http://www.w3.org/1999/xlink" xmlns:a="http://ns.adobe.com/AdobeSVGViewerExtensions/3.0/"
	 x="0px" y="0px" width="45px" height="36px" viewBox="-0.484 -0.838 45 36"
	 overflow="visible" enable-background="new -0.484 -0.838 45 36" xml:space="preserve">
<defs>
</defs>
<g>
	<g>
		<path fill-rule="evenodd" clip-rule="evenodd" fill="#777777" d="M43.201,0H1.168C0.522,0,0,0.523,0,1.167v4.67
			c0,0.645,0.522,1.167,1.168,1.167h42.033c0.645,0,1.167-0.522,1.167-1.167v-4.67C44.368,0.523,43.846,0,43.201,0z M43.201,14.012
			H1.168C0.522,14.012,0,14.534,0,15.18v4.67c0,0.645,0.522,1.168,1.168,1.168h42.033c0.645,0,1.167-0.523,1.167-1.168v-4.67
			C44.368,14.534,43.846,14.012,43.201,14.012z M43.201,28.023H1.168C0.522,28.023,0,28.545,0,29.19v4.671
			c0,0.644,0.522,1.167,1.168,1.167h42.033c0.645,0,1.167-0.523,1.167-1.167V29.19C44.368,28.545,43.846,28.023,43.201,28.023z"/>
	</g>
</g>
</svg>
