<?xml version="1.0" encoding="utf-8"?>
<!-- Generator: Adobe Illustrator 15.0.0, SVG Export Plug-In  -->
<!DOCTYPE svg PUBLIC "-//W3C//DTD SVG 1.1//EN" "http://www.w3.org/Graphics/SVG/1.1/DTD/svg11.dtd" [
	<!ENTITY ns_flows "http://ns.adobe.com/Flows/1.0/">
]>
<svg version="1.1"
	 xmlns="http://www.w3.org/2000/svg" xmlns:xlink="http://www.w3.org/1999/xlink" xmlns:a="http://ns.adobe.com/AdobeSVGViewerExtensions/3.0/"
	 x="0px" y="0px" width="40px" height="39px" viewBox="-0.488 -0.609 40 39"
	 overflow="visible" enable-background="new -0.488 -0.609 40 39" xml:space="preserve">
<defs>
</defs>
<g>
	<g>
		<path fill-rule="evenodd" clip-rule="evenodd" fill="#777777" d="M20.811,21.1l6.524,1.451l11.878-7.128l-5.773-1.577L20.811,21.1
			z M18.648,4.84L11.73,0.331L0.717,8.238l6.053,3.735L18.648,4.84z M38.988,7.53L26.061,0l-5.519,5.524l12.784,6.892L38.988,7.53z
			 M5.898,17.608V31l13.417,7.027V21.971l-4.678-0.07L5.898,17.608z M9.665,21.653l1.517,2.53l-0.785-0.399v4.494l-1.463-0.744
			V23.04L8.148,22.64L9.665,21.653z M16.803,34.742L7.438,29.19l0.65-1.1l9.367,5.552L16.803,34.742z M16.473,27.377l-0.785-0.399
			v4.493l-1.463-0.743v-4.494l-0.785-0.399l1.517-0.985L16.473,27.377z M20.594,22.065v15.963L34.01,31V20.1l-7.2,3.772
			L20.594,22.065z M19.441,6.083L7.176,13.111l12.779,7.026l12.777-7.026L19.441,6.083z M0,13.618l14.35,7.242h5.23L7.309,14.361
			L0,13.618z"/>
	</g>
</g>
</svg>
