<?xml version="1.0" encoding="utf-8"?>
<!-- Generator: Adobe Illustrator 15.0.0, SVG Export Plug-In  -->
<!DOCTYPE svg PUBLIC "-//W3C//DTD SVG 1.1//EN" "http://www.w3.org/Graphics/SVG/1.1/DTD/svg11.dtd" [
	<!ENTITY ns_flows "http://ns.adobe.com/Flows/1.0/">
]>
<svg version="1.1"
	 xmlns="http://www.w3.org/2000/svg" xmlns:xlink="http://www.w3.org/1999/xlink" xmlns:a="http://ns.adobe.com/AdobeSVGViewerExtensions/3.0/"
	 x="0px" y="0px" width="44px" height="39px" viewBox="-0.091 -0.521 44 39"
	 overflow="visible" enable-background="new -0.091 -0.521 44 39" xml:space="preserve">
<defs>
</defs>
<g>
	<g>
		<path fill-rule="evenodd" clip-rule="evenodd" fill="#777777" d="M42.886,18.485l-1.233-1.574c0,0-0.435-0.929-1.404-0.17
			c-0.787,0.616-1.403-0.17-1.403-0.17s-0.402-0.514-0.617-0.787c-0.617-0.787,0.17-1.404,0.17-1.404s0.787-0.616,0.17-1.403
			c-0.616-0.787-5.063-6.461-5.552-7.084c-0.617-0.787-1.403-0.17-1.403-0.17s-0.815,0.581-1.404-0.17
			c-0.289-0.369-0.579-0.739-0.617-0.787c-0.078-0.101-0.879-0.582,0.17-1.404c0.787-0.617,0.171-1.404,0.171-1.404l-1.234-1.574
			c-0.341-0.435-0.969-0.511-1.403-0.17l-7.871,6.169c-0.435,0.34-0.511,0.969-0.17,1.404c0,0,0.617,0.787,1.233,1.574
			c0.617,0.787,1.404,0.17,1.404,0.17s0.787-0.616,1.404,0.171c0.616,0.787,0,0,0.616,0.787c0.617,0.787-0.17,1.403-0.17,1.403
			s-0.787,0.616-0.17,1.403s5.552,7.084,5.552,7.084s0.617,0.787,1.404,0.17s1.404,0.17,1.404,0.17l0.616,0.787
			c0,0,0.617,0.787-0.17,1.404s-0.17,1.404-0.17,1.404l1.233,1.574c0.341,0.435,0.97,0.511,1.404,0.17l7.87-6.169
			C43.15,19.549,43.227,18.92,42.886,18.485z M24.378,15.696L0.767,34.203c-0.869,0.682-1.021,1.938-0.341,2.808
			c0.682,0.87,1.938,1.022,2.809,0.341l23.61-18.508L24.378,15.696z M31.347,35.479c-0.637-1.061-1-2-1-2h-13c0,0-0.351,0.918-1,2
			c-0.828,1.381-3,3-3,3h21C34.347,38.479,32.183,36.872,31.347,35.479z"/>
	</g>
</g>
</svg>
