<svg version="1.1" 
	 xmlns="http://www.w3.org/2000/svg" xmlns:xlink="http://www.w3.org/1999/xlink" xmlns:a="http://ns.adobe.com/AdobeSVGViewerExtensions/3.0/"
	 x="0px" y="0px" width="44px" height="46px" viewBox="-0.703 -0.662 44 46"
	 overflow="visible" enable-background="new -0.703 -0.662 44 46" xml:space="preserve">
<defs>
</defs>
<path fill-rule="evenodd" clip-rule="evenodd" fill="#777777" d="M42.656,38.443l-9.092-8.759c-0.727-0.716-1.904-0.716-2.631,0
	l-5.342-5.214l0.295-0.152c2.316-2.576,3.535-6.039,3.535-9.752C29.422,6.507,22.98,0,14.805,0S0,6.584,0,14.642
	c0,8.06,6.629,14.365,14.805,14.365c2.943,0,5.685-0.62,7.989-2.078c0.165,0,0.165,0.082,0.165,0.082l5.344,5.267
	c-0.727,0.717-0.727,1.877,0,2.593l8.887,8.961c0.727,0.716,1.904,0.716,2.631,0l2.836-2.795
	C43.383,40.32,43.383,39.159,42.656,38.443z M14.676,24.18c-5.438,0-9.846-4.319-9.846-9.679c0-5.358,4.408-9.703,9.846-9.703
	s9.862,4.345,9.862,9.703C24.538,19.861,20.113,24.18,14.676,24.18z"/>
</svg>
